<?xml version="1.0" encoding="UTF-8"?>
<!DOCTYPE svg PUBLIC "-//W3C//DTD SVG 1.1//EN" "http://www.w3.org/Graphics/SVG/1.1/DTD/svg11.dtd">
<svg xmlns="http://www.w3.org/2000/svg" version="1.1" width="1172px" height="1170px" style="shape-rendering:geometricPrecision; text-rendering:geometricPrecision; image-rendering:optimizeQuality; fill-rule:evenodd; clip-rule:evenodd" xmlns:xlink="http://www.w3.org/1999/xlink">
<g><path style="opacity:1" fill="#f97695" d="M 335.5,78.5 C 413.67,34.7896 497.67,12.9563 587.5,13C 560.131,11.4576 532.797,11.1243 505.5,12C 619.699,-3.11245 728.699,14.5542 832.5,65C 851.365,77.5994 869.698,90.9327 887.5,105C 893.257,110.085 898.257,115.751 902.5,122C 902.333,122.5 902.167,123 902,123.5C 787.475,51.661 662.642,20.8277 527.5,31C 461.036,37.1162 397.036,52.9495 335.5,78.5 Z"/></g>
<g><path style="opacity:1" fill="#f97695" d="M 335.5,78.5 C 334.833,79.1667 334.833,79.1667 335.5,78.5 Z"/></g>
<g><path style="opacity:1" fill="#f97695" d="M 332.5,79.5 C 333.833,80.1667 333.833,80.1667 332.5,79.5 Z"/></g>
<g><path style="opacity:1" fill="#f97695" d="M 330.5,80.5 C 331.833,81.1667 331.833,81.1667 330.5,80.5 Z"/></g>
<g><path style="opacity:1" fill="#f97695" d="M 706.5,84.5 C 760.08,87.6422 811.747,99.8088 861.5,121C 988.437,190.283 1074.27,293.783 1119,431.5C 1116.52,409.916 1114.85,388.249 1114,366.5C 1131.16,416.141 1141.83,467.141 1146,519.5C 1146.98,537.65 1146.65,555.65 1145,573.5C 1122.54,482.116 1087.21,396.116 1039,315.5C 958.33,195.696 847.497,118.696 706.5,84.5 Z"/></g>
<g><path style="opacity:1" fill="#f97695" d="M 607.5,547.5 C 600.662,542.912 593.328,539.079 585.5,536C 581.367,532.869 577.534,529.369 574,525.5C 576.537,552.838 570.203,577.838 555,600.5C 548.826,609.162 540.993,615.829 531.5,620.5C 530.328,620.081 529.328,619.415 528.5,618.5C 535.694,610.779 540.194,601.779 542,591.5C 522.638,619.511 497.305,640.177 466,653.5C 456.287,648.393 446.787,642.893 437.5,637C 430.824,635.059 424.157,635.059 417.5,637C 408.997,639.991 401.83,644.824 396,651.5C 395.654,653.218 395.154,654.885 394.5,656.5C 394.709,657.086 395.043,657.586 395.5,658C 392.51,657.848 389.51,657.348 386.5,656.5C 384.423,656.692 382.423,657.192 380.5,658C 366.959,666.931 353.626,676.098 340.5,685.5C 322.074,660.638 309.574,632.971 303,602.5C 291.651,622.888 291.817,643.222 303.5,663.5C 290.76,664.535 279.094,661.368 268.5,654C 256.287,646.12 246.453,635.954 239,623.5C 233.034,613.26 228.034,602.593 224,591.5C 216.705,605.039 215.705,619.039 221,633.5C 223.755,639.01 226.422,644.343 229,649.5C 200.381,649.561 180.047,636.561 168,610.5C 161.166,593.166 157.999,575.166 158.5,556.5C 158.722,548.158 159.056,539.825 159.5,531.5C 154.469,531.701 150.136,533.534 146.5,537C 137.654,547.857 133.154,560.357 133,574.5C 132.463,585.539 132.963,596.539 134.5,607.5C 134.167,608.833 133.833,610.167 133.5,611.5C 109.589,587.824 105.756,561.157 122,531.5C 133.789,513.377 148.623,498.21 166.5,486C 191.377,470.463 213.877,451.963 234,430.5C 245.417,416.667 253.417,401 258,383.5C 262.666,356.171 267.333,328.837 272,301.5C 288.126,224.661 329.626,166.161 396.5,126C 451.058,97.5133 508.392,90.18 568.5,104C 581.082,106.861 593.416,110.528 605.5,115C 582.741,118.474 561.741,126.474 542.5,139C 521.542,152.95 502.709,169.45 486,188.5C 485,185.833 484,183.167 483,180.5C 480.724,175.693 477.724,171.359 474,167.5C 469.941,170.736 466.108,174.069 462.5,177.5C 461.558,177.392 460.725,177.059 460,176.5C 458.839,172.17 456.673,168.503 453.5,165.5C 436.959,174.577 428.626,188.577 428.5,207.5C 429.331,223.837 433.997,239.003 442.5,253C 443.793,253.49 445.127,253.657 446.5,253.5C 445.964,248.645 447.964,246.479 452.5,247C 454.908,249.369 454.908,251.869 452.5,254.5C 453.035,256.101 454.035,256.601 455.5,256C 468.35,245.823 478.183,233.323 485,218.5C 486.863,211.291 487.863,203.957 488,196.5C 517.65,167.894 552.15,147.061 591.5,134C 648.663,117.916 701.663,126.583 750.5,160C 755.167,164 759.833,168 764.5,172C 770.062,173.581 774.562,172.081 778,167.5C 780.208,162.711 781.708,157.711 782.5,152.5C 784.422,154.003 785.588,156.003 786,158.5C 788.188,168.309 786.022,176.976 779.5,184.5C 821.694,234.917 837.527,292.584 827,357.5C 817.117,397.609 798.117,432.609 770,462.5C 769.389,466.682 770.056,470.682 772,474.5C 774.599,480.089 777.599,485.423 781,490.5C 794.289,507.457 807.955,524.124 822,540.5C 835.669,566.522 839.003,593.856 832,622.5C 829.866,631.401 827.033,640.068 823.5,648.5C 822.998,649.521 822.332,649.688 821.5,649C 817.957,643.374 815.79,637.207 815,630.5C 809.333,654.677 797.833,675.51 780.5,693C 778.024,695.571 775.024,697.071 771.5,697.5C 770.938,684.84 770.438,672.173 770,659.5C 761.855,691.946 744.022,717.446 716.5,736C 714.167,737.167 711.833,738.333 709.5,739.5C 708.338,734.869 708.172,730.202 709,725.5C 709.87,720.373 710.87,715.373 712,710.5C 701.799,722.368 690.632,733.202 678.5,743C 675.833,744.333 673.167,745.667 670.5,747C 659.882,744.364 649.882,740.031 640.5,734C 636.256,732.987 632.423,733.82 629,736.5C 627.168,740.321 625.834,744.321 625,748.5C 621,737.167 617,725.833 613,714.5C 601.696,702.196 590.03,690.196 578,678.5C 577.333,683.167 577.333,687.833 578,692.5C 585.147,699.07 592.48,705.403 600,711.5C 612.034,738.934 621.701,767.268 629,796.5C 633.172,813.685 636.172,831.018 638,848.5C 594.018,793.85 544.185,745.35 488.5,703C 478.833,696.667 469.167,690.333 459.5,684C 442.016,674.591 424.349,665.758 406.5,657.5C 406.977,656.522 407.643,655.689 408.5,655C 414.991,651.922 421.325,648.588 427.5,645C 429.913,644.516 432.246,644.85 434.5,646C 494.777,679.403 549.61,720.236 599,768.5C 594.422,751.104 588.422,734.104 581,717.5C 573.667,710.167 566.333,702.833 559,695.5C 558.228,661.817 568.228,631.817 589,605.5C 604.836,613.667 621.003,621.167 637.5,628C 644.333,630.292 651.333,631.792 658.5,632.5C 665.563,632.72 670.73,629.72 674,623.5C 676.014,615.123 679.014,607.123 683,599.5C 685.709,596.622 688.542,593.956 691.5,591.5C 696.445,589.873 700.445,587.04 703.5,583C 702.057,579.039 702.39,575.205 704.5,571.5C 717.79,568.366 722.623,560.033 719,546.5C 719.471,544.754 720.138,543.087 721,541.5C 727.921,536.955 735.088,532.788 742.5,529C 745.4,526.603 747.733,523.77 749.5,520.5C 728.93,498.889 722.43,473.556 730,444.5C 733.224,436.282 736.891,428.282 741,420.5C 746.604,401.546 749.604,382.213 750,362.5C 740.504,378.999 726.337,388.666 707.5,391.5C 706.837,372.629 708.004,353.962 711,335.5C 693.748,359.968 671.415,378.301 644,390.5C 642.558,389.788 641.725,388.621 641.5,387C 642.258,373.704 643.758,360.537 646,347.5C 627.708,372.642 604.542,391.642 576.5,404.5C 558.117,458.6 568.45,506.266 607.5,547.5 Z M 381.5,204.5 C 401.461,206.235 416.295,215.901 426,233.5C 429.366,241.267 432.533,249.1 435.5,257C 435.167,257.833 434.833,258.667 434.5,259.5C 431.667,258.067 428.667,257.4 425.5,257.5C 425.971,261.503 427.971,264.669 431.5,267C 430.672,267.915 429.672,268.581 428.5,269C 411.738,272.633 395.071,272.3 378.5,268C 361.86,259.24 352.86,245.406 351.5,226.5C 367.518,227.301 370.851,221.134 361.5,208C 368.215,206.286 374.881,205.12 381.5,204.5 Z M 504.5,230.5 C 521.844,228.225 536.511,233.392 548.5,246C 544.636,249.365 541.303,253.198 538.5,257.5C 542.476,260.469 546.476,263.469 550.5,266.5C 537.276,289.194 517.942,296.694 492.5,289C 484.833,285.333 477.167,281.667 469.5,278C 466.872,276.374 464.539,274.374 462.5,272C 471.745,268.906 471.745,266.239 462.5,264C 461.483,262.951 461.316,261.784 462,260.5C 469.559,251.942 478.059,244.442 487.5,238C 493.328,235.621 498.995,233.121 504.5,230.5 Z M 444.5,263.5 C 452.018,263.887 454.518,267.554 452,274.5C 446.023,279.102 441.856,277.769 439.5,270.5C 440.06,267.288 441.727,264.955 444.5,263.5 Z M 422.5,276.5 C 426.375,276.085 430.042,276.585 433.5,278C 430.356,279.613 429.19,282.113 430,285.5C 433.482,287.077 436.148,286.077 438,282.5C 439.678,303.267 433.844,321.767 420.5,338C 409.118,347.281 396.118,350.614 381.5,348C 380.394,343.004 381.061,338.171 383.5,333.5C 383.167,332.833 382.833,332.167 382.5,331.5C 376.9,331.124 371.234,331.124 365.5,331.5C 364.196,307.65 374.53,291.15 396.5,282C 405.1,279.184 413.766,277.35 422.5,276.5 Z M 457.5,281.5 C 472.373,285.351 485.206,292.684 496,303.5C 507.132,319.238 509.632,336.404 503.5,355C 503.167,355.5 502.833,356 502.5,356.5C 497.789,352.81 492.456,350.81 486.5,350.5C 486.469,355.625 485.636,360.625 484,365.5C 456.929,360.228 443.763,343.728 444.5,316C 444.496,305.516 446.163,295.35 449.5,285.5C 451.535,287.372 453.702,289.039 456,290.5C 457.261,290.241 458.261,289.574 459,288.5C 458.563,286.243 458.063,283.91 457.5,281.5 Z"/></g>
<g><path style="opacity:1" fill="#f97695" d="M -0.5,619.5 C -0.5,596.833 -0.5,574.167 -0.5,551.5C 3.94933,480.036 21.116,411.703 51,346.5C 53.3557,352.945 54.6891,359.612 55,366.5C 58.9757,357.212 63.9757,348.545 70,340.5C 75.5854,332.74 75.9188,324.74 71,316.5C 62.2073,312.376 54.5406,306.71 48,299.5C 39.917,287.37 37.2503,274.036 40,259.5C 40.9925,249.844 44.3259,241.177 50,233.5C 54.2898,238.41 57.2898,244.076 59,250.5C 58.1979,243.496 58.5312,236.496 60,229.5C 60.3076,228.692 60.8076,228.025 61.5,227.5C 77.6684,235.499 88.1684,248.165 93,265.5C 97.0658,283.57 93.3991,299.904 82,314.5C 81.3333,316.833 81.3333,319.167 82,321.5C 95.3958,300.424 110.729,280.757 128,262.5C 132.414,257.344 136.081,251.677 139,245.5C 140.647,241.578 141.647,237.578 142,233.5C 138,228.833 134,224.167 130,219.5C 112.181,180.013 119.681,145.513 152.5,116C 154.167,115.333 155.833,115.333 157.5,116C 150.616,130.544 148.783,145.71 152,161.5C 155.113,142.159 161.779,124.159 172,107.5C 173.013,105.154 174.679,103.487 177,102.5C 180.341,114.861 184.341,127.195 189,139.5C 195.742,159.258 194.742,178.591 186,197.5C 179.346,209.816 170.846,220.65 160.5,230C 160.833,230.167 161.167,230.333 161.5,230.5C 174.091,219.201 187.091,208.367 200.5,198C 201.313,173.056 212.98,155.056 235.5,144C 237.165,143.212 238.831,142.878 240.5,143C 241.626,146.744 241.793,150.577 241,154.5C 239.435,159.057 238.435,163.723 238,168.5C 248.62,155.218 261.62,144.884 277,137.5C 273.779,146.803 271.446,156.469 270,166.5C 266.381,176.244 260.881,184.744 253.5,192C 246.956,196.773 239.956,200.773 232.5,204C 222.518,206.198 212.518,207.198 202.5,207C 187.594,218.225 172.927,229.892 158.5,242C 152.005,247.997 146.005,254.497 140.5,261.5C 149.162,258.453 156.829,253.286 163.5,246C 176.123,236.686 190.123,230.686 205.5,228C 212.62,227.284 219.62,227.95 226.5,230C 233.556,233.86 240.889,237.193 248.5,240C 253.479,241.633 258.479,241.8 263.5,240.5C 264.614,241.723 264.781,243.056 264,244.5C 259.439,248.866 254.272,252.366 248.5,255C 221.999,282.816 192.666,286.316 160.5,265.5C 147.863,270.958 137.03,278.958 128,289.5C 81.6751,339.477 51.6751,398.144 38,465.5C 19.7896,546.917 20.1229,628.25 39,709.5C 56.7236,758.638 82.3903,802.971 116,842.5C 136.481,865.324 159.647,884.824 185.5,901C 188.482,901.498 191.482,901.665 194.5,901.5C 191.725,919.149 189.059,936.815 186.5,954.5C 179.418,952.944 173.751,949.11 169.5,943C 150.709,931.544 133.042,918.544 116.5,904C 112.279,899.779 108.113,895.613 104,891.5C 104.483,895.791 105.149,900.124 106,904.5C 106.667,910.167 106.667,915.833 106,921.5C 41.8076,831.097 6.30758,730.43 -0.5,619.5 Z"/></g>
<g><path style="opacity:1" fill="#f97695" d="M 933.5,133.5 C 932.833,132.167 932.833,132.167 933.5,133.5 Z"/></g>
<g><path style="opacity:1" fill="#f97695" d="M 933.5,133.5 C 942.275,137.054 950.275,141.887 957.5,148C 1010.46,194.515 1053.46,248.682 1086.5,310.5C 1041.87,246.42 990.871,187.42 933.5,133.5 Z"/></g>
<g><path style="opacity:1" fill="#f97695" d="M 1086.5,310.5 C 1087.91,310.973 1088.57,311.973 1088.5,313.5C 1087.09,313.027 1086.43,312.027 1086.5,310.5 Z"/></g>
<g><path style="opacity:1" fill="#f97695" d="M 1088.5,313.5 C 1089.34,313.842 1089.67,314.508 1089.5,315.5C 1088.66,315.158 1088.33,314.492 1088.5,313.5 Z"/></g>
<g><path style="opacity:1" fill="#f97695" d="M 1089.5,315.5 C 1090.83,316.167 1090.83,316.167 1089.5,315.5 Z"/></g>
<g><path style="opacity:1" fill="#f97695" d="M 1014.5,530.5 C 1034.47,537.633 1047.97,551.3 1055,571.5C 1059.63,587.906 1059.3,604.239 1054,620.5C 1050.83,630.51 1046.83,640.176 1042,649.5C 1041.31,650.357 1040.48,651.023 1039.5,651.5C 1038.28,650.289 1037.11,650.289 1036,651.5C 1034.55,648.702 1033.55,645.702 1033,642.5C 1030.67,638.396 1028.83,638.563 1027.5,643C 1027.98,645.888 1028.64,648.721 1029.5,651.5C 1027.91,654.257 1025.58,655.09 1022.5,654C 1004.76,641.928 990.925,626.428 981,607.5C 970.4,583.418 972.734,560.751 988,539.5C 989.133,537.789 990.633,537.289 992.5,538C 996.91,541.621 1001.41,545.121 1006,548.5C 1009.12,542.599 1011.95,536.599 1014.5,530.5 Z"/></g>
<g><path style="opacity:1" fill="#f97695" d="M 607.5,547.5 C 608.833,548.167 608.833,548.167 607.5,547.5 Z"/></g>
<g><path style="opacity:1" fill="#f97695" d="M 1110.5,579.5 C 1122.88,578.563 1134.88,580.23 1146.5,584.5C 1146.83,585.333 1147.17,586.167 1147.5,587C 1145.93,593.13 1144.59,599.297 1143.5,605.5C 1149.5,606.167 1155.5,606.833 1161.5,607.5C 1158.94,643.891 1139.61,664.724 1103.5,670C 1087.95,671.161 1072.62,669.828 1057.5,666C 1056.26,664.846 1055.26,663.512 1054.5,662C 1056.5,660.667 1058.5,659.333 1060.5,658C 1064.41,655.72 1064.41,653.553 1060.5,651.5C 1057.83,653.167 1055.17,654.833 1052.5,656.5C 1050.45,655.073 1049.45,653.073 1049.5,650.5C 1054.33,627.991 1065,608.824 1081.5,593C 1090.24,586.294 1099.91,581.794 1110.5,579.5 Z"/></g>
<g><path style="opacity:1" fill="#f97695" d="M 939.5,618.5 C 961.768,617.312 981.434,623.812 998.5,638C 1006.03,644.862 1013.53,651.695 1021,658.5C 1021.9,661.025 1021.4,663.192 1019.5,665C 1015.58,664.482 1011.58,664.482 1007.5,665C 1006.62,666.356 1006.29,667.856 1006.5,669.5C 1010.85,669.969 1015.18,670.636 1019.5,671.5C 1020.83,672.833 1020.83,674.167 1019.5,675.5C 1005.59,687.123 989.924,695.623 972.5,701C 939.636,707.383 914.969,696.05 898.5,667C 903.444,663.183 908.444,659.35 913.5,655.5C 910.06,649.894 906.06,644.727 901.5,640C 907.469,632.168 915.136,626.501 924.5,623C 929.577,621.32 934.577,619.82 939.5,618.5 Z"/></g>
<g><path style="opacity:1" fill="#f97695" d="M 1032.5,657.5 C 1045.32,656.153 1050.82,661.819 1049,674.5C 1045.34,681.07 1039.84,683.237 1032.5,681C 1025.93,677.345 1023.76,671.845 1026,664.5C 1027.69,661.642 1029.86,659.309 1032.5,657.5 Z"/></g>
<g><path style="opacity:1" fill="#f97695" d="M 386.5,667.5 C 391.698,667.731 396.698,668.897 401.5,671C 433.581,684.864 463.248,702.53 490.5,724C 547.189,769.686 597.355,821.519 641,879.5C 641.667,896.833 641.667,914.167 641,931.5C 640.607,942.048 639.274,952.382 637,962.5C 595.772,901.915 547.939,846.749 493.5,797C 455.629,763.046 413.629,735.046 367.5,713C 357.245,708.804 346.912,704.804 336.5,701C 352.715,689.066 369.382,677.9 386.5,667.5 Z"/></g>
<g><path style="opacity:1" fill="#f97695" d="M 1023.5,669.5 C 1024.83,670.167 1024.83,670.167 1023.5,669.5 Z"/></g>
<g><path style="opacity:1" fill="#f97695" d="M 1067.5,673.5 C 1086.57,672.51 1104.57,676.343 1121.5,685C 1141.69,699.552 1151.69,719.386 1151.5,744.5C 1144.83,744.5 1138.17,744.5 1131.5,744.5C 1132.63,751.482 1133.63,758.482 1134.5,765.5C 1125.92,767.142 1117.26,767.809 1108.5,767.5C 1099.23,796.029 1086.73,823.029 1071,848.5C 1037.51,900.684 997.347,947.517 950.5,989C 969.164,982.667 986.497,973.667 1002.5,962C 1019.25,949.252 1034.75,935.085 1049,919.5C 1049.5,920 1050,920.5 1050.5,921C 1007.2,981.301 954.536,1031.63 892.5,1072C 889.573,1074.38 886.739,1076.88 884,1079.5C 868.988,1044.48 853.155,1009.81 836.5,975.5C 866.022,981.693 894.688,978.526 922.5,966C 957.322,949.161 986.489,925.328 1010,894.5C 1040.42,853.672 1066.26,810.005 1087.5,763.5C 1064.99,748.193 1051.83,726.86 1048,699.5C 1046.61,694.508 1046.44,689.508 1047.5,684.5C 1050.89,683.505 1053.89,684.338 1056.5,687C 1060.11,688.254 1061.61,687.088 1061,683.5C 1058.41,681.789 1055.91,679.955 1053.5,678C 1054.17,677 1054.83,676 1055.5,675C 1059.69,674.824 1063.69,674.324 1067.5,673.5 Z M 1042.5,871.5 C 1061.66,837.51 1078.99,802.51 1094.5,766.5C 1094.83,766.167 1095.17,765.833 1095.5,765.5C 1099.42,766.651 1103.42,767.485 1107.5,768C 1089.7,805.143 1068.03,839.643 1042.5,871.5 Z"/></g>
<g><path style="opacity:1" fill="#f97695" d="M 1020.5,682.5 C 1028.39,682.227 1029.56,684.894 1024,690.5C 1022.75,694.111 1023.91,695.611 1027.5,695C 1029.3,691.897 1031.47,689.063 1034,686.5C 1036,686.996 1037.66,687.996 1039,689.5C 1047.76,711.557 1050.09,734.224 1046,757.5C 1038.32,781.919 1021.82,795.919 996.5,799.5C 995.461,792.679 993.795,786.012 991.5,779.5C 985.833,782.333 980.167,785.167 974.5,788C 973.056,788.781 971.723,788.614 970.5,787.5C 954.94,750.687 963.273,720.52 995.5,697C 1003.57,691.635 1011.9,686.802 1020.5,682.5 Z"/></g>
<g><path style="opacity:1" fill="#f97695" d="M 318.5,714.5 C 350.34,721.836 380.007,734.336 407.5,752C 449.853,780.327 488.686,813.16 524,850.5C 563.928,894.079 600.428,940.245 633.5,989C 619.495,1054.84 590.995,1113.34 548,1164.5C 539.319,1075.78 515.986,991.11 478,910.5C 484.135,935.378 490.135,960.378 496,985.5C 501.116,1007.74 505.449,1030.08 509,1052.5C 412.198,998.237 308.365,975.571 197.5,984.5C 202.751,936.409 211.918,889.076 225,842.5C 231.355,818.795 241.688,797.128 256,777.5C 274.363,753.97 295.197,732.97 318.5,714.5 Z"/></g>
<g><path style="opacity:1" fill="#f97695" d="M 635.5,743.5 C 652.032,756.187 667.865,769.854 683,784.5C 719.152,923.578 693.652,1049.91 606.5,1163.5C 594.514,1164.67 582.514,1164.83 570.5,1164C 625.335,1099.1 655.501,1023.94 661,938.5C 664.56,871.982 656.06,806.982 635.5,743.5 Z"/></g>
<g><path style="opacity:1" fill="#f97695" d="M 707.5,806.5 C 728.725,823.554 748.892,841.887 768,861.5C 798.797,922.091 827.131,983.757 853,1046.5C 857.862,1059.78 862.029,1073.28 865.5,1087C 852.292,1095.77 838.292,1103.27 823.5,1109.5C 823.869,1062.86 813.702,1018.53 793,976.5C 785.512,960.19 777.512,944.19 769,928.5C 771.636,940.077 775.302,951.41 780,962.5C 786.333,977.167 792.667,991.833 799,1006.5C 811.977,1042.37 815.144,1079.04 808.5,1116.5C 751.94,1141.22 692.94,1156.39 631.5,1162C 678.172,1100.77 705.672,1031.6 714,954.5C 718.992,904.832 716.825,855.498 707.5,806.5 Z"/></g>
<g><path style="opacity:1" fill="#f97695" d="M 843.5,811.5 C 856.439,813.136 867.773,818.303 877.5,827C 880.667,830.167 883.833,833.333 887,836.5C 887.397,830.373 889.897,825.373 894.5,821.5C 897.161,827.666 901.161,832.833 906.5,837C 917.486,843.312 927.319,851.145 936,860.5C 946.72,877.534 949.387,895.868 944,915.5C 941.443,926.673 937.61,937.34 932.5,947.5C 928.707,904.54 905.374,881.04 862.5,877C 857.845,876.501 853.179,876.334 848.5,876.5C 844.756,855.009 843.089,833.343 843.5,811.5 Z"/></g>
<g><path style="opacity:1" fill="#f97695" d="M 832.5,880.5 C 885.917,878.094 913.417,903.427 915,956.5C 901.565,953.929 888.065,951.429 874.5,949C 862.739,945.563 853.573,938.73 847,928.5C 838.445,913.612 833.612,897.612 832.5,880.5 Z"/></g>
<g><path style="opacity:1" fill="#f97695" d="M 885.5,887.5 C 886.833,888.167 886.833,888.167 885.5,887.5 Z"/></g>
<g><path style="opacity:1" fill="#f97695" d="M 112.5,929.5 C 132.406,945.132 153.406,959.299 175.5,972C 178.289,972.241 180.956,972.908 183.5,974C 181.555,984.724 180.055,995.558 179,1006.5C 154.359,982.712 132.192,957.045 112.5,929.5 Z"/></g>
<g><path style="opacity:1" fill="#f97695" d="M 215.5,996.5 C 320.482,995.246 419.149,1019.41 511.5,1069C 513.004,1070.49 513.837,1072.32 514,1074.5C 515.231,1080.55 516.231,1086.55 517,1092.5C 516.311,1093.36 515.478,1094.02 514.5,1094.5C 484.98,1073.58 452.314,1057.41 416.5,1046C 343.735,1024.46 269.401,1015.29 193.5,1018.5C 194.167,1011.5 194.833,1004.5 195.5,997.5C 202.354,997.824 209.021,997.491 215.5,996.5 Z"/></g>
<g><path style="opacity:1" fill="#f97695" d="M 218.5,1027.5 C 223.267,1027.19 227.934,1027.69 232.5,1029C 233.554,1030.39 233.72,1031.89 233,1033.5C 229.395,1037.72 224.895,1039.89 219.5,1040C 212.141,1035.92 211.807,1031.75 218.5,1027.5 Z"/></g>
<g><path style="opacity:1" fill="#f97695" d="M 282.5,1030.5 C 298.971,1032.1 315.304,1034.6 331.5,1038C 332.804,1038.8 333.471,1039.97 333.5,1041.5C 332.394,1044.44 330.394,1046.61 327.5,1048C 316.165,1054.58 304.665,1060.75 293,1066.5C 291.045,1065.55 289.378,1064.21 288,1062.5C 284.667,1054.5 281.333,1046.5 278,1038.5C 276.797,1034.22 278.297,1031.56 282.5,1030.5 Z"/></g>
<g><path style="opacity:1" fill="#f97695" d="M 257.5,1032.5 C 260.97,1031.87 263.804,1032.87 266,1035.5C 270.057,1045.95 274.391,1056.28 279,1066.5C 280.453,1076.52 276.62,1079.36 267.5,1075C 254.941,1067.11 242.941,1058.44 231.5,1049C 232.833,1047.67 234.167,1046.33 235.5,1045C 243.001,1040.97 250.334,1036.8 257.5,1032.5 Z"/></g>
<g><path style="opacity:1" fill="#f97695" d="M 355.5,1043.5 C 369.269,1044.78 382.602,1047.94 395.5,1053C 400.072,1057.98 401.906,1063.81 401,1070.5C 389.913,1077.96 378.413,1084.8 366.5,1091C 364.365,1091.63 362.365,1091.3 360.5,1090C 354.548,1078.26 349.548,1066.09 345.5,1053.5C 345.577,1051.7 346.077,1050.03 347,1048.5C 349.682,1046.41 352.516,1044.75 355.5,1043.5 Z"/></g>
<g><path style="opacity:1" fill="#f97695" d="M 328.5,1058.5 C 331.97,1057.87 334.804,1058.87 337,1061.5C 342.293,1072.72 346.793,1084.22 350.5,1096C 350.833,1098.67 349.833,1100.67 347.5,1102C 342.667,1104.83 337.833,1107.67 333,1110.5C 323.121,1105.81 313.287,1100.98 303.5,1096C 299.735,1091.88 297.401,1087.04 296.5,1081.5C 296.556,1078.89 297.556,1076.72 299.5,1075C 309.229,1069.47 318.896,1063.97 328.5,1058.5 Z"/></g>
<g><path style="opacity:1" fill="#f97695" d="M 416.5,1059.5 C 433.382,1064.18 449.715,1070.35 465.5,1078C 470.944,1083.04 473.444,1089.21 473,1096.5C 461.54,1103.81 449.706,1110.48 437.5,1116.5C 436.167,1115.83 434.833,1115.17 433.5,1114.5C 426.716,1098.99 420.216,1083.32 414,1067.5C 412.837,1064.03 413.67,1061.36 416.5,1059.5 Z"/></g>
<g><path style="opacity:1" fill="#f97695" d="M 402.5,1082.5 C 405.652,1081.96 408.152,1082.96 410,1085.5C 415.913,1096.74 420.747,1108.41 424.5,1120.5C 424.244,1123.27 422.91,1125.44 420.5,1127C 414.252,1130.37 408.085,1133.87 402,1137.5C 393.042,1134.74 384.209,1131.57 375.5,1128C 371.816,1121.13 368.816,1113.96 366.5,1106.5C 366.94,1103.79 368.274,1101.62 370.5,1100C 381.421,1094.38 392.087,1088.54 402.5,1082.5 Z"/></g>
<g><path style="opacity:1" fill="#f97695" d="M 486.5,1089.5 C 488.527,1089.34 490.527,1089.5 492.5,1090C 501.328,1094.58 509.995,1099.41 518.5,1104.5C 521.192,1113.14 523.192,1121.97 524.5,1131C 523.561,1132.94 522.227,1134.61 520.5,1136C 516.51,1138.35 512.344,1140.18 508,1141.5C 505.849,1141.36 504.182,1140.36 503,1138.5C 496.442,1123.49 490.276,1108.33 484.5,1093C 484.978,1091.7 485.645,1090.53 486.5,1089.5 Z"/></g>
<g><path style="opacity:1" fill="#f97695" d="M 474.5,1106.5 C 477.099,1106.55 479.266,1107.55 481,1109.5C 485.942,1120.38 490.609,1131.38 495,1142.5C 495.755,1145.3 495.422,1147.97 494,1150.5C 490.162,1153.59 485.828,1155.59 481,1156.5C 470.064,1154.85 459.231,1152.68 448.5,1150C 444.702,1143.73 441.702,1137.07 439.5,1130C 439.862,1128.78 440.362,1127.61 441,1126.5C 451.816,1119.18 462.983,1112.51 474.5,1106.5 Z"/></g>
<g><path style="opacity:1" fill="#f97695" d="M 351.5,1110.5 C 358.417,1110.76 361.417,1114.43 360.5,1121.5C 355.418,1120.75 350.751,1118.92 346.5,1116C 347.692,1113.65 349.359,1111.81 351.5,1110.5 Z"/></g>
<g><path style="opacity:1" fill="#f97695" d="M 424.5,1134.5 C 430.059,1134.55 433.392,1137.38 434.5,1143C 433.809,1144.07 433.309,1145.23 433,1146.5C 427.674,1145.38 422.507,1143.71 417.5,1141.5C 418.883,1138.12 421.217,1135.78 424.5,1134.5 Z"/></g>
<g><path style="opacity:1" fill="#f97695" d="M 521.5,1145.5 C 523.993,1145.33 525.826,1146.33 527,1148.5C 527.876,1152.7 528.709,1156.87 529.5,1161C 529.167,1161.33 528.833,1161.67 528.5,1162C 522.775,1162.43 517.275,1161.6 512,1159.5C 509.891,1156.71 510.058,1154.04 512.5,1151.5C 515.393,1149.23 518.393,1147.23 521.5,1145.5 Z"/></g>
</svg>
